<svg width="333" height="150" viewBox="0 0 333 150" fill="none" xmlns="http://www.w3.org/2000/svg">
<rect width="333" height="149.465" fill="#D9D9D9"/>
<path d="M154.397 82.1581L149.768 72.3857L148.265 81.8416H146.959L149.214 68.2314L154.397 79.3886L159.58 68.2314L161.835 81.8416H160.53L159.026 72.3857L154.397 82.1581ZM174.176 81.8416L172.871 78.9929H165.67L164.364 81.8416H162.94L169.27 68.2314L175.601 81.8416H174.176ZM166.244 77.7269H172.297L169.27 71.0801L166.244 77.7269ZM180.986 68.548C184.448 68.548 186.051 70.2097 186.051 72.722C186.051 75.2145 184.429 77.0939 181.619 77.0939H178.454V81.8416H177.188V68.548H180.986ZM181.619 75.8278C183.341 75.8278 184.785 75.0167 184.785 72.8407C184.785 70.6646 183.242 69.814 181.521 69.814H178.454V75.8278H181.619Z" fill="black"/>
</svg>
