<svg width="132" height="35" viewBox="0 0 132 35" fill="none" xmlns="http://www.w3.org/2000/svg">
<rect width="131.907" height="34.514" rx="17.257" fill="black"/>
<path d="M51.4867 12.601H49.2211L48.1071 10.8236C48.0475 10.7284 47.9666 10.6504 47.8718 10.5964C47.777 10.5424 47.6712 10.5141 47.5636 10.514H42.3329C42.2253 10.5141 42.1195 10.5424 42.0247 10.5964C41.9299 10.6504 41.849 10.7284 41.7893 10.8236L40.6745 12.601H38.4098C37.8895 12.601 37.3906 12.8209 37.0228 13.2122C36.6549 13.6036 36.4482 14.1344 36.4482 14.6879V24.4271C36.4482 24.9806 36.6549 25.5114 37.0228 25.9028C37.3906 26.2941 37.8895 26.514 38.4098 26.514H51.4867C52.0069 26.514 52.5059 26.2941 52.8737 25.9028C53.2416 25.5114 53.4482 24.9806 53.4482 24.4271V14.6879C53.4482 14.1344 53.2416 13.6036 52.8737 13.2122C52.5059 12.8209 52.0069 12.601 51.4867 12.601ZM52.1405 24.4271C52.1405 24.6116 52.0717 24.7885 51.949 24.919C51.8264 25.0494 51.6601 25.1227 51.4867 25.1227H38.4098C38.2364 25.1227 38.0701 25.0494 37.9474 24.919C37.8248 24.7885 37.7559 24.6116 37.7559 24.4271V14.6879C37.7559 14.5034 37.8248 14.3265 37.9474 14.196C38.0701 14.0656 38.2364 13.9923 38.4098 13.9923H41.0252C41.1328 13.9924 41.2389 13.9641 41.3338 13.9101C41.4288 13.8561 41.5097 13.778 41.5695 13.6827L42.6827 11.9053H47.213L48.327 13.6827C48.3868 13.778 48.4677 13.8561 48.5627 13.9101C48.6576 13.9641 48.7636 13.9924 48.8713 13.9923H51.4867C51.6601 13.9923 51.8264 14.0656 51.949 14.196C52.0717 14.3265 52.1405 14.5034 52.1405 14.6879V24.4271ZM44.9482 15.3836C44.237 15.3836 43.5417 15.608 42.9503 16.0284C42.3589 16.4488 41.898 17.0464 41.6258 17.7455C41.3536 18.4446 41.2824 19.2139 41.4212 19.9561C41.5599 20.6983 41.9024 21.38 42.4054 21.9151C42.9083 22.4502 43.5491 22.8146 44.2467 22.9622C44.9443 23.1099 45.6673 23.0341 46.3244 22.7445C46.9815 22.4549 47.5432 21.9645 47.9383 21.3353C48.3335 20.7061 48.5444 19.9664 48.5444 19.2097C48.5433 18.1953 48.1641 17.2228 47.4899 16.5055C46.8157 15.7882 45.9017 15.3847 44.9482 15.3836ZM44.9482 21.6445C44.4956 21.6445 44.0532 21.5017 43.6768 21.2341C43.3005 20.9666 43.0072 20.5863 42.834 20.1414C42.6608 19.6965 42.6155 19.207 42.7038 18.7347C42.7921 18.2624 43.01 17.8285 43.3301 17.488C43.6501 17.1475 44.0579 16.9156 44.5018 16.8217C44.9457 16.7277 45.4058 16.7759 45.824 16.9602C46.2422 17.1445 46.5996 17.4566 46.851 17.857C47.1025 18.2574 47.2367 18.7281 47.2367 19.2097C47.2367 19.8554 46.9956 20.4747 46.5664 20.9313C46.1373 21.3879 45.5552 21.6445 44.9482 21.6445Z" fill="white"/>
<path d="M64.4775 21.0726C63.9971 21.0726 63.5381 20.975 63.1006 20.7796C62.667 20.5843 62.2861 20.3128 61.958 19.9652C61.6299 19.6175 61.3682 19.2113 61.1729 18.7464C60.9775 18.2816 60.8799 17.7777 60.8799 17.2347C60.8799 16.6996 60.9775 16.1976 61.1729 15.7289C61.3682 15.2601 61.6299 14.8519 61.958 14.5043C62.2861 14.1566 62.667 13.8851 63.1006 13.6898C63.5381 13.4945 63.9971 13.3968 64.4775 13.3968C64.8916 13.3968 65.2783 13.4671 65.6377 13.6078C66.001 13.7445 66.3193 13.93 66.5928 14.1644C66.8701 14.3949 67.1045 14.6625 67.2959 14.9671C67.4912 15.2718 67.6318 15.5882 67.7178 15.9164H66.5166C66.4541 15.725 66.3643 15.5375 66.2471 15.3539C66.1299 15.1664 65.9854 15.0062 65.8135 14.8734C65.6416 14.7367 65.4443 14.6273 65.2217 14.5453C64.999 14.4593 64.751 14.4164 64.4775 14.4164C64.165 14.4164 63.8604 14.4867 63.5635 14.6273C63.2705 14.764 63.0088 14.9593 62.7783 15.2132C62.5518 15.4632 62.3682 15.7601 62.2275 16.1039C62.0869 16.4476 62.0166 16.8246 62.0166 17.2347C62.0166 17.641 62.0869 18.016 62.2275 18.3597C62.3682 18.7035 62.5518 19.0023 62.7783 19.2562C63.0088 19.5062 63.2705 19.7015 63.5635 19.8421C63.8604 19.9828 64.165 20.0531 64.4775 20.0531C64.7744 20.0531 65.0479 20.0043 65.2979 19.9066C65.5518 19.805 65.7744 19.6703 65.9658 19.5023C66.1572 19.3343 66.3154 19.139 66.4404 18.9164C66.5654 18.6898 66.6514 18.4496 66.6982 18.1957H64.4189V17.1117H67.7764V21.014H66.9385L66.6396 20.2933C66.4795 20.4457 66.29 20.5785 66.0713 20.6918C65.8877 20.7894 65.6611 20.8773 65.3916 20.9554C65.126 21.0336 64.8213 21.0726 64.4775 21.0726ZM71.3154 15.5531C71.6279 15.5531 71.9131 15.6039 72.1709 15.7054C72.4326 15.8031 72.6553 15.9378 72.8389 16.1097C73.0225 16.2816 73.165 16.4847 73.2666 16.7191C73.3682 16.9496 73.4189 17.2015 73.4189 17.475V21.014H72.6396L72.3994 20.475C72.2939 20.5882 72.1689 20.6878 72.0244 20.7738C71.8955 20.8519 71.7334 20.9222 71.5381 20.9847C71.3428 21.0433 71.1084 21.0726 70.835 21.0726C70.2334 21.0726 69.7725 20.9242 69.4521 20.6273C69.1357 20.3265 68.9775 19.9359 68.9775 19.4554C68.9775 19.182 69.0283 18.9359 69.1299 18.7171C69.2354 18.4945 69.4131 18.307 69.6631 18.1546C69.917 17.9984 70.2588 17.8773 70.6885 17.7914C71.1221 17.7015 71.6709 17.6566 72.335 17.6566V17.475C72.335 17.2015 72.249 16.9828 72.0771 16.8187C71.9053 16.6546 71.6514 16.5726 71.3154 16.5726C70.9561 16.5726 70.6943 16.6371 70.5303 16.766C70.3662 16.8949 70.2686 17.0511 70.2373 17.2347H69.1592C69.1904 16.7543 69.3916 16.3539 69.7627 16.0336C70.1338 15.7132 70.6514 15.5531 71.3154 15.5531ZM70.8994 20.1117C71.3564 20.1117 71.71 19.9945 71.96 19.7601C72.21 19.5257 72.335 19.2406 72.335 18.9046V18.6117C71.8545 18.6117 71.4658 18.6351 71.1689 18.682C70.876 18.725 70.6455 18.7855 70.4775 18.8636C70.3096 18.9378 70.1963 19.0316 70.1377 19.1449C70.083 19.2543 70.0557 19.3773 70.0557 19.514C70.0557 19.6664 70.1279 19.805 70.2725 19.93C70.417 20.0511 70.626 20.1117 70.8994 20.1117ZM75.9326 21.014H74.8545V13.4554H75.9326V21.014ZM78.5693 21.014H77.4912V13.4554H78.5693V21.014ZM84.751 19.4554C84.6611 19.6781 84.5479 19.8871 84.4111 20.0824C84.2744 20.2777 84.1104 20.4496 83.9189 20.598C83.7275 20.7464 83.5049 20.8636 83.251 20.9496C83.001 21.0316 82.7197 21.0726 82.4072 21.0726C82.0479 21.0726 81.7119 21.0062 81.3994 20.8734C81.0869 20.7367 80.8135 20.5472 80.5791 20.305C80.3447 20.0589 80.1611 19.7679 80.0283 19.432C79.8955 19.0961 79.8291 18.723 79.8291 18.3128C79.8291 17.9066 79.8955 17.5355 80.0283 17.1996C80.1611 16.8636 80.3408 16.5746 80.5674 16.3324C80.7939 16.0863 81.0615 15.8949 81.3701 15.7582C81.6787 15.6214 82.0049 15.5531 82.3486 15.5531C82.6924 15.5531 83.0186 15.6214 83.3271 15.7582C83.6357 15.8949 83.9033 16.0863 84.1299 16.3324C84.3564 16.5746 84.5361 16.8636 84.6689 17.1996C84.8018 17.5355 84.8682 17.9066 84.8682 18.3128C84.8682 18.3753 84.8643 18.4378 84.8564 18.5003C84.8486 18.5589 84.8408 18.6097 84.833 18.6527C84.8252 18.7074 84.8174 18.7543 84.8096 18.7933H80.9658C80.9814 18.9613 81.0303 19.1214 81.1123 19.2738C81.1943 19.4261 81.2959 19.5609 81.417 19.6781C81.542 19.7914 81.6904 19.8832 81.8623 19.9535C82.0342 20.0199 82.2158 20.0531 82.4072 20.0531C82.7354 20.0531 82.9951 19.9828 83.1865 19.8421C83.3818 19.7015 83.5225 19.5726 83.6084 19.4554H84.751ZM82.3486 16.5726C81.9893 16.5726 81.6846 16.6957 81.4346 16.9418C81.1885 17.1839 81.0322 17.5023 80.9658 17.8968H83.8486C83.7861 17.5062 83.626 17.1878 83.3682 16.9418C83.1143 16.6957 82.7744 16.5726 82.3486 16.5726ZM88.4072 15.5531C88.4697 15.5531 88.5205 15.557 88.5596 15.5648C88.6025 15.5726 88.6416 15.5804 88.6768 15.5882C88.708 15.5961 88.7393 15.6039 88.7705 15.6117V16.6957C88.7393 16.6878 88.7021 16.68 88.6592 16.6722C88.6201 16.6644 88.5791 16.6566 88.5361 16.6488C88.4932 16.6371 88.4502 16.6312 88.4072 16.6312C88.2236 16.6312 88.0518 16.6683 87.8916 16.7425C87.7314 16.8128 87.5908 16.9086 87.4697 17.0296C87.3525 17.1507 87.2588 17.2914 87.1885 17.4515C87.1221 17.6117 87.0889 17.7796 87.0889 17.9554V21.014H86.0107V15.6117H86.79L87.0303 16.1566C87.1279 16.0433 87.2432 15.9418 87.376 15.8519C87.4893 15.7816 87.6318 15.7152 87.8037 15.6527C87.9756 15.5863 88.1768 15.5531 88.4072 15.5531ZM89.1221 15.6117H90.2646L91.7646 19.514L93.2646 15.6117H94.4072L92.1221 21.3714C92.001 21.6761 91.8818 21.93 91.7646 22.1332C91.6514 22.3402 91.5264 22.5062 91.3896 22.6312C91.2568 22.7601 91.1084 22.8519 90.9443 22.9066C90.7803 22.9652 90.5947 22.9945 90.3877 22.9945C90.3408 22.9945 90.2959 22.9925 90.2529 22.9886C90.2139 22.9847 90.1748 22.9789 90.1357 22.9711C90.0967 22.9632 90.0596 22.9515 90.0244 22.9359V22.0336C90.3291 22.0336 90.5596 21.9691 90.7158 21.8402C90.8721 21.7152 90.9814 21.5589 91.0439 21.3714L91.2256 20.8324L89.1221 15.6117Z" fill="white"/>
</svg>
