<svg width="93" height="12" viewBox="0 0 93 12" fill="none" xmlns="http://www.w3.org/2000/svg">
<path d="M4.125 7.55H2.775V11H0.975V1.55H4.725C5.175 1.55 5.59 1.63 5.97 1.79C6.36 1.94 6.695 2.15 6.975 2.42C7.255 2.69 7.475 3.005 7.635 3.365C7.795 3.715 7.875 4.085 7.875 4.475C7.875 5.005 7.77 5.445 7.56 5.795C7.35 6.145 7.115 6.43 6.855 6.65C6.555 6.91 6.22 7.11 5.85 7.25L8.1 11H6.075L4.125 7.55ZM2.775 5.825H4.725C5.105 5.825 5.425 5.7 5.685 5.45C5.945 5.19 6.075 4.89 6.075 4.55C6.075 4.21 5.945 3.915 5.685 3.665C5.425 3.405 5.105 3.275 4.725 3.275H2.775V5.825ZM16.0436 9.275V11H9.36855V1.55H15.8936V3.275H11.1686V5.3H15.5186V7.025H11.1686V9.275H16.0436ZM18.3674 11H16.4924L20.0174 1.55H21.6674L25.1924 11H23.3174L22.6424 9.05H19.0424L18.3674 11ZM22.0424 7.4L20.8424 3.95L19.6424 7.4H22.0424ZM29.0971 9.275C29.4671 9.275 29.8221 9.195 30.1621 9.035C30.5121 8.875 30.8171 8.66 31.0771 8.39C31.3471 8.12 31.5571 7.805 31.7071 7.445C31.8671 7.075 31.9471 6.685 31.9471 6.275C31.9471 5.865 31.8671 5.48 31.7071 5.12C31.5571 4.75 31.3471 4.43 31.0771 4.16C30.8171 3.89 30.5121 3.675 30.1621 3.515C29.8221 3.355 29.4671 3.275 29.0971 3.275H27.8971V9.275H29.0971ZM26.0971 11V1.55H29.0971C29.7171 1.55 30.3071 1.68 30.8671 1.94C31.4271 2.19 31.9221 2.53 32.3521 2.96C32.7821 3.39 33.1221 3.89 33.3721 4.46C33.6221 5.03 33.7471 5.635 33.7471 6.275C33.7471 6.915 33.6221 7.52 33.3721 8.09C33.1221 8.66 32.7821 9.16 32.3521 9.59C31.9221 10.02 31.4271 10.365 30.8671 10.625C30.3071 10.875 29.7171 11 29.0971 11H26.0971ZM38.1732 4.19C38.1732 3.83 38.2482 3.485 38.3982 3.155C38.5582 2.825 38.7782 2.54 39.0582 2.3C39.3482 2.05 39.6932 1.85 40.0932 1.7C40.5032 1.55 40.9632 1.475 41.4732 1.475C41.9432 1.475 42.3682 1.55 42.7482 1.7C43.1382 1.85 43.4732 2.06 43.7532 2.33C44.0332 2.6 44.2482 2.92 44.3982 3.29C44.5482 3.65 44.6232 4.045 44.6232 4.475H42.8982C42.8982 4.055 42.7732 3.725 42.5232 3.485C42.2732 3.245 41.9232 3.125 41.4732 3.125C41.0232 3.125 40.6732 3.235 40.4232 3.455C40.1732 3.675 40.0482 3.915 40.0482 4.175C40.0482 4.455 40.1682 4.67 40.4082 4.82C40.6482 4.97 40.9482 5.105 41.3082 5.225C41.6682 5.345 42.0582 5.47 42.4782 5.6C42.9082 5.73 43.3032 5.905 43.6632 6.125C44.0232 6.345 44.3232 6.635 44.5632 6.995C44.8032 7.345 44.9232 7.805 44.9232 8.375C44.9232 8.715 44.8382 9.045 44.6682 9.365C44.5082 9.685 44.2782 9.975 43.9782 10.235C43.6782 10.485 43.3132 10.69 42.8832 10.85C42.4632 11 41.9932 11.075 41.4732 11.075C40.9432 11.075 40.4682 11 40.0482 10.85C39.6382 10.7 39.2882 10.49 38.9982 10.22C38.7082 9.94 38.4832 9.615 38.3232 9.245C38.1732 8.865 38.0982 8.45 38.0982 8H39.8982C39.8982 8.42 40.0382 8.765 40.3182 9.035C40.5982 9.295 40.9832 9.425 41.4732 9.425C42.0032 9.425 42.3982 9.315 42.6582 9.095C42.9182 8.865 43.0482 8.6 43.0482 8.3C43.0482 8.01 42.9282 7.785 42.6882 7.625C42.4482 7.465 42.1482 7.325 41.7882 7.205C41.4282 7.075 41.0332 6.95 40.6032 6.83C40.1832 6.71 39.7932 6.545 39.4332 6.335C39.0732 6.125 38.7732 5.855 38.5332 5.525C38.2932 5.185 38.1732 4.74 38.1732 4.19ZM45.4447 1.55H52.7947V3.275H50.0197V11H48.2197V3.275H45.4447V1.55ZM54.9697 6.275C54.9697 6.725 55.0447 7.14 55.1947 7.52C55.3447 7.89 55.5447 8.215 55.7947 8.495C56.0447 8.765 56.3347 8.975 56.6647 9.125C57.0047 9.275 57.3647 9.35 57.7447 9.35C58.1147 9.35 58.4697 9.275 58.8097 9.125C59.1497 8.975 59.4447 8.765 59.6947 8.495C59.9447 8.215 60.1447 7.89 60.2947 7.52C60.4447 7.14 60.5197 6.725 60.5197 6.275C60.5197 5.825 60.4447 5.415 60.2947 5.045C60.1447 4.665 59.9447 4.34 59.6947 4.07C59.4447 3.79 59.1497 3.575 58.8097 3.425C58.4697 3.275 58.1147 3.2 57.7447 3.2C57.3647 3.2 57.0047 3.275 56.6647 3.425C56.3347 3.575 56.0447 3.79 55.7947 4.07C55.5447 4.34 55.3447 4.665 55.1947 5.045C55.0447 5.415 54.9697 5.825 54.9697 6.275ZM62.3197 6.275C62.3197 6.955 62.1947 7.585 61.9447 8.165C61.7047 8.745 61.3747 9.255 60.9547 9.695C60.5447 10.125 60.0597 10.465 59.4997 10.715C58.9497 10.955 58.3647 11.075 57.7447 11.075C57.1247 11.075 56.5347 10.955 55.9747 10.715C55.4247 10.465 54.9397 10.125 54.5197 9.695C54.1097 9.255 53.7797 8.745 53.5297 8.165C53.2897 7.585 53.1697 6.955 53.1697 6.275C53.1697 5.605 53.2897 4.98 53.5297 4.4C53.7797 3.81 54.1097 3.3 54.5197 2.87C54.9397 2.43 55.4247 2.09 55.9747 1.85C56.5347 1.6 57.1247 1.475 57.7447 1.475C58.3647 1.475 58.9497 1.6 59.4997 1.85C60.0597 2.09 60.5447 2.43 60.9547 2.87C61.3747 3.3 61.7047 3.81 61.9447 4.4C62.1947 4.98 62.3197 5.605 62.3197 6.275ZM66.8936 7.55H65.5436V11H63.7436V1.55H67.4936C67.9436 1.55 68.3586 1.63 68.7386 1.79C69.1286 1.94 69.4636 2.15 69.7436 2.42C70.0236 2.69 70.2436 3.005 70.4036 3.365C70.5636 3.715 70.6436 4.085 70.6436 4.475C70.6436 5.005 70.5386 5.445 70.3286 5.795C70.1186 6.145 69.8836 6.43 69.6236 6.65C69.3236 6.91 68.9886 7.11 68.6186 7.25L70.8686 11H68.8436L66.8936 7.55ZM65.5436 5.825H67.4936C67.8736 5.825 68.1936 5.7 68.4536 5.45C68.7136 5.19 68.8436 4.89 68.8436 4.55C68.8436 4.21 68.7136 3.915 68.4536 3.665C68.1936 3.405 67.8736 3.275 67.4936 3.275H65.5436V5.825ZM77.0941 1.55H79.0441L75.8941 7.4V11H74.0941V7.4L70.9441 1.55H72.8941L74.9941 5.6L77.0941 1.55Z" fill="#1E1E1E"/>
<path d="M87.7229 1L92.4999 5.777L87.7229 10.554" stroke="black" stroke-width="0.868545" stroke-linecap="round" stroke-linejoin="round"/>
</svg>
