<svg width="319" height="176" viewBox="0 0 319 176" fill="none" xmlns="http://www.w3.org/2000/svg">
<path d="M60.6314 86.1956C52.9897 87.0649 45.3626 86.6412 38.2881 83.646C32.7114 81.2864 27.0038 80.6143 21.1726 80.3367C15.1087 80.0445 11.1898 76.8667 8.53593 71.7164C7.95426 70.5914 7.05995 69.8536 6.04931 69.218C0.494399 65.6968 0.174483 65.1562 0.421691 58.5376C0.610733 53.4093 1.25784 48.3394 2.46479 43.3425C3.06827 40.8587 3.64994 40.3619 6.24562 40.4423C9.94647 40.5592 13.4583 41.6769 16.9992 42.6412C19.2967 43.2695 21.5725 43.9708 23.8265 44.7159C26.0586 45.4538 28.1381 45.1689 30.1521 44.0292C32.377 42.7654 34.2746 41.0998 35.9542 39.1931C37.6701 37.2572 39.8368 36.4974 42.3162 36.4901C43.5958 36.4901 44.8973 36.5632 46.1624 36.7531C48.1837 37.0672 49.667 36.2052 50.9612 34.8099C52.4735 33.1808 53.4405 31.1865 54.5021 29.2725C55.3309 27.7822 56.4725 26.7448 58.0211 26.0727C60.2169 25.1157 62.4273 24.261 64.863 24.1733C66.3826 24.1149 67.575 23.3186 68.6656 22.3689C72.0465 19.4468 74.9476 16.1083 77.1579 12.1926C78.1759 10.3809 79.8191 9.1828 81.535 8.15275C87.7442 4.41973 94.2953 1.52682 101.537 0.467544C104.569 0.0219186 107.128 0.949695 109.091 3.25087C111.862 6.50175 112.916 10.3882 113.272 14.6107C113.963 22.7853 118.071 29.0095 124.811 33.4438C127.828 35.4309 131.18 34.6346 134.343 33.6045C139.709 31.8512 144.58 29.0095 149.561 26.4088C150.615 25.8609 151.706 25.3568 152.702 24.7066C156.832 22.0183 160.925 22.6611 165.033 24.7212C168.472 26.4453 171.322 29.0241 174.412 31.2595C176.732 32.9397 178.993 34.693 181.32 36.3586C183.755 38.1046 186.518 38.0462 189.281 37.5567C191.891 37.0892 194.364 36.081 196.428 34.4446C200.253 31.4275 204.688 30.2148 209.341 30.1199C214.867 30.003 217.921 26.7594 220.27 22.4201C221.666 19.8413 221.905 16.8461 222.814 14.0774C223.134 13.1058 223.367 12.2657 224.457 12.0027C224.545 11.9807 224.617 11.8931 224.705 11.8566C225.439 11.5424 225.81 10.2859 226.602 10.5781C227.831 11.031 228.929 11.8639 229.605 13.1058C229.991 13.8144 230.449 14.4938 230.856 15.1878C232.819 18.5409 235.982 19.6002 239.595 20.0531C242.802 20.4549 245.972 21.1708 249.164 21.7187C250.683 21.9817 251.89 22.7269 252.952 23.8373C254.231 25.1888 255.373 26.6791 256.878 27.8041C259.248 29.5793 260.521 29.6085 262.942 27.9356C264.12 27.1247 265.276 26.2773 266.446 25.4591C268.141 24.2829 269.82 24.1806 271.616 25.3641C273.128 26.3576 274.299 27.6507 275.361 29.0679C277.491 31.9097 280.486 32.6767 283.809 32.7133C284.616 32.7206 285.242 32.2823 285.896 31.8732C288.288 30.3975 290.637 28.7538 293.421 28.162C296.388 27.5411 299.034 28.615 301.426 30.339C301.819 30.6239 301.972 31.0988 302.059 31.5882C302.786 35.6646 304.909 38.9374 307.941 41.6623C310.253 43.737 312.74 45.5853 315.212 47.4627C316.281 48.2736 317.284 49.1503 318.084 50.2388C318.818 51.2323 318.869 52.1089 317.786 52.9563C315.495 54.7534 313.249 56.6017 310.988 58.4353C310.653 58.7056 310.333 58.9905 310.013 59.2828C305.215 63.6221 305.345 69.5467 310.319 73.7035C311.86 74.9892 313.329 76.3626 314.485 78.0209C315.953 80.1468 315.903 81.9074 314.376 83.6387C312.965 85.2386 311.068 85.5746 308.923 84.435C306.85 83.3392 304.647 82.7913 302.35 82.6963C299.703 82.5868 299.347 83.3392 299.936 85.5016C300.648 88.1315 301.186 90.8053 301.877 93.4425C302.153 94.5017 301.841 94.6332 300.852 94.5748C297.718 94.3776 294.577 94.1292 291.465 94.8816C289.975 95.2469 288.913 95.992 288.273 97.4458C287.488 99.2356 286.674 101.025 285.598 102.669C284.369 104.539 283.642 104.758 281.526 104.101C278.8 103.246 276.059 102.443 273.23 101.99C271.078 101.646 269.268 101.953 267.726 103.787C265.567 106.344 262.818 107.724 259.299 107.476C257.125 107.323 254.915 107.6 252.785 108.185C250.742 108.747 250.422 109.346 251.258 111.238C253.272 115.782 255.344 120.29 257.38 124.826C257.634 125.389 257.831 125.988 258.005 126.579C258.79 129.268 258.507 129.955 255.787 130.809C252.356 131.883 248.866 132.584 245.252 131.62C244.569 131.437 243.842 131.408 243.129 131.364C241.893 131.291 240.97 131.73 240.279 132.862C239.246 134.564 237.785 135.857 235.953 136.712C234.651 137.318 233.524 137.223 232.405 136.23C229.882 134.002 226.98 132.358 223.956 130.933C223.229 130.59 222.465 130.298 221.687 130.079C220.349 129.699 219.848 130.02 219.63 131.408C219.273 133.724 218.917 136.025 218.146 138.261C217.456 140.262 216.147 141.197 214.089 141.519C210.985 142.001 207.953 142.841 205.052 144.105C204.019 144.558 203.147 145.201 202.79 146.355C200.158 154.931 194.451 160.783 186.613 164.721C184.577 165.743 182.876 167.197 181.247 168.738C180.629 169.323 180.316 169.549 179.589 168.79C177.197 166.306 174.187 164.735 171.046 163.442C169.526 162.821 168.036 162.945 166.495 163.676C159.813 166.839 153.414 170.528 146.921 174.057C144.951 175.131 143.01 175.299 140.872 174.955C134.467 173.918 128.214 172.223 121.997 170.426C118.216 169.33 114.544 169.418 111.149 171.105C104.773 174.276 97.9452 174.459 91.1034 174.809C87.4389 174.999 83.7889 175.306 80.1317 175.613C78.125 175.781 77.3761 175.043 77.7396 173.019C78.4449 169.089 80.4298 165.685 82.2548 162.229C83.7526 159.402 85.403 156.663 87.6861 154.354C88.704 153.332 88.9294 151.914 89.0748 150.512C89.4674 146.771 89.0966 143.06 88.7258 139.342C88.5368 137.421 88.5368 135.507 89.5474 133.753C89.8382 133.249 90.1 132.869 90.8271 132.826C91.5105 132.782 92.2958 132.489 92.1649 131.445C92.1067 130.999 92.543 130.963 92.812 130.817C93.8517 130.232 94.9569 129.801 96.0839 129.407C98.934 128.406 99.3848 126.689 97.3272 124.497C92.9429 119.837 89.133 114.643 84.5087 110.215C80.139 106.037 78.2704 100.85 77.5869 95.0423C77.3761 93.2891 76.998 91.5431 76.918 89.7825C76.8307 87.8831 75.7474 87.0649 74.126 86.685C71.1377 85.9837 68.0839 85.8888 65.0375 85.9618C63.5615 85.9983 62.0855 86.1152 60.6095 86.2029L60.6314 86.1956Z" stroke="#50840C" stroke-miterlimit="10"/>
</svg>
