<svg width="1135" height="624" viewBox="0 0 1135 624" fill="none" xmlns="http://www.w3.org/2000/svg">
<path d="M215.726 305.603C188.537 308.685 161.4 307.182 136.229 296.563C116.387 288.197 96.0794 285.814 75.332 284.83C53.7568 283.794 39.8132 272.527 30.3708 254.267C28.3012 250.279 25.1193 247.663 21.5234 245.409C1.75908 232.925 0.620819 231.008 1.50038 207.542C2.17299 189.36 4.47538 171.385 8.76972 153.669C10.9169 144.863 12.9865 143.101 22.2219 143.386C35.3895 143.801 47.8844 147.764 60.4829 151.182C68.6577 153.41 76.7549 155.896 84.7744 158.538C92.7164 161.154 100.115 160.144 107.281 156.104C115.197 151.623 121.949 145.717 127.925 138.957C134.03 132.094 141.739 129.4 150.561 129.374C155.114 129.374 159.744 129.633 164.246 130.306C171.437 131.42 176.715 128.364 181.319 123.417C186.7 117.641 190.141 110.57 193.918 103.784C196.867 98.5004 200.929 94.8225 206.439 92.4396C214.251 89.0467 222.116 86.0163 230.782 85.7055C236.189 85.4983 240.431 82.6751 244.312 79.308C256.341 68.9477 266.663 57.1111 274.527 43.2283C278.149 36.8049 283.996 32.5572 290.101 28.9052C312.193 15.6699 335.502 5.41325 361.268 1.65764C372.056 0.0777002 381.162 3.36709 388.146 11.5258C398.003 23.0516 401.754 36.8308 403.021 51.8014C405.479 80.7843 420.095 102.852 444.076 118.573C454.812 125.618 466.738 122.795 477.991 119.143C497.083 112.927 514.416 102.852 532.136 93.6311C535.887 91.6885 539.768 89.9014 543.312 87.5962C558.006 78.0648 572.57 80.344 587.187 87.648C599.423 93.7606 609.564 102.904 620.558 110.829C628.811 116.786 636.856 123.002 645.134 128.908C653.801 135.098 663.631 134.891 673.461 133.156C682.749 131.498 691.544 127.924 698.891 122.122C712.499 111.425 728.279 107.125 744.836 106.789C764.496 106.374 775.362 94.8743 783.717 79.4893C788.684 70.3463 789.538 59.727 792.772 49.9107C793.91 46.4659 794.738 43.4873 798.618 42.5549C798.929 42.4772 799.187 42.1664 799.498 42.0369C802.111 40.9231 803.43 36.4682 806.25 37.5042C810.622 39.1101 814.528 42.0628 816.934 46.4659C818.305 48.9782 819.935 51.387 821.383 53.8476C828.368 65.736 839.621 69.4916 852.479 71.0975C863.887 72.522 875.166 75.0603 886.523 77.0028C891.93 77.9352 896.224 80.5771 900.001 84.514C904.554 89.3057 908.615 94.5894 913.97 98.5781C922.404 104.872 926.931 104.976 935.546 99.0443C939.737 96.1694 943.85 93.1649 948.015 90.264C954.042 86.094 960.018 85.7314 966.408 89.9273C971.789 93.4498 975.954 98.0342 979.731 103.059C987.311 113.134 997.969 115.854 1009.79 115.983C1012.66 116.009 1014.89 114.455 1017.22 113.005C1025.73 107.773 1034.08 101.945 1043.99 99.8473C1054.55 97.6457 1063.96 101.453 1072.47 107.566C1073.87 108.576 1074.41 110.259 1074.72 111.995C1077.31 126.447 1084.86 138.051 1095.65 147.712C1103.88 155.068 1112.73 161.62 1121.52 168.277C1125.32 171.152 1128.89 174.26 1131.74 178.119C1134.35 181.642 1134.53 184.75 1130.68 187.754C1122.53 194.126 1114.54 200.679 1106.49 207.18C1105.3 208.138 1104.16 209.148 1103.03 210.184C1085.95 225.569 1086.42 246.575 1104.11 261.312C1109.6 265.871 1114.82 270.74 1118.93 276.62C1124.16 284.157 1123.98 290.399 1118.55 296.537C1113.53 302.21 1106.78 303.401 1099.14 299.36C1091.77 295.475 1083.93 293.533 1075.76 293.196C1066.34 292.808 1065.07 295.475 1067.17 303.142C1069.71 312.466 1071.62 321.946 1074.08 331.296C1075.06 335.052 1073.95 335.518 1070.43 335.311C1059.28 334.611 1048.1 333.731 1037.03 336.398C1031.73 337.694 1027.95 340.335 1025.68 345.49C1022.88 351.835 1019.98 358.181 1016.16 364.009C1011.78 370.639 1009.2 371.416 1001.67 369.085C991.967 366.055 982.214 363.206 972.151 361.6C964.494 360.383 958.052 361.47 952.568 367.971C944.885 377.037 935.106 381.932 922.585 381.051C914.85 380.507 906.986 381.492 899.406 383.564C892.137 385.558 890.998 387.682 893.973 394.39C901.139 410.5 908.512 426.481 915.755 442.565C916.661 444.56 917.359 446.684 917.98 448.782C920.774 458.313 919.765 460.748 910.09 463.778C897.88 467.586 885.462 470.072 872.605 466.653C870.173 466.006 867.586 465.902 865.051 465.747C860.653 465.488 857.368 467.042 854.91 471.056C851.237 477.091 846.037 481.676 839.518 484.706C834.887 486.856 830.878 486.519 826.894 482.996C817.917 475.097 807.595 469.269 796.833 464.218C794.246 463.001 791.53 461.965 788.762 461.188C784.002 459.841 782.217 460.981 781.441 465.902C780.173 474.113 778.906 482.271 776.164 490.197C773.706 497.294 769.049 500.609 761.728 501.749C750.682 503.458 739.894 506.437 729.572 510.917C725.899 512.523 722.795 514.803 721.527 518.895C712.162 549.302 691.855 570.049 663.967 584.009C656.724 587.635 650.67 592.79 644.876 598.255C642.677 600.327 641.564 601.13 638.977 598.436C630.466 589.63 619.756 584.061 608.581 579.477C603.174 577.275 597.871 577.715 592.386 580.305C568.612 591.521 545.847 604.6 522.746 617.11C515.735 620.918 508.828 621.514 501.222 620.296C478.431 616.618 456.183 610.609 434.065 604.238C420.613 600.353 407.549 600.663 395.467 606.647C372.78 617.887 348.488 618.535 324.145 619.778C311.107 620.452 298.12 621.539 285.108 622.627C277.968 623.223 275.304 620.607 276.597 613.432C279.106 599.498 286.169 587.428 292.662 575.177C297.991 565.154 303.863 555.441 311.987 547.256C315.608 543.63 316.41 538.605 316.928 533.632C318.325 520.371 317.005 507.214 315.686 494.03C315.013 487.218 315.013 480.432 318.609 474.216C319.644 472.429 320.575 471.082 323.162 470.927C325.594 470.771 328.388 469.735 327.922 466.032C327.715 464.452 329.267 464.322 330.225 463.804C333.924 461.732 337.856 460.204 341.866 458.805C352.007 455.257 353.611 449.17 346.29 441.4C330.69 424.875 317.135 406.46 300.682 390.764C285.134 375.949 278.485 357.559 276.054 336.968C275.304 330.752 273.958 324.562 273.674 318.32C273.363 311.586 269.509 308.685 263.74 307.338C253.107 304.851 242.242 304.515 231.403 304.774C226.151 304.903 220.9 305.318 215.648 305.628L215.726 305.603Z" stroke="#50840C" stroke-miterlimit="10"/>
</svg>
