<svg width="203" height="51" viewBox="0 0 203 51" fill="none" xmlns="http://www.w3.org/2000/svg">
<path d="M113.781 8.69453C113.654 8.96658 113.493 9.23585 113.298 9.50235C113.104 9.7633 112.876 9.99094 112.615 10.1853C112.355 10.374 112.057 10.5295 111.724 10.6516C111.397 10.7682 111.03 10.8265 110.625 10.8265C110.136 10.8265 109.673 10.7321 109.234 10.5434C108.796 10.349 108.413 10.0798 108.085 9.73554C107.763 9.38576 107.508 8.97213 107.319 8.49465C107.136 8.01717 107.044 7.48695 107.044 6.90398C107.044 6.32657 107.136 5.79912 107.319 5.32164C107.508 4.84417 107.76 4.43331 108.077 4.08908C108.399 3.7393 108.773 3.46725 109.201 3.27293C109.628 3.07861 110.075 2.98145 110.542 2.98145C111.008 2.98145 111.447 3.07305 111.858 3.25627C112.274 3.43949 112.635 3.70044 112.94 4.03911C113.251 4.37224 113.495 4.77476 113.673 5.24669C113.856 5.71862 113.948 6.24329 113.948 6.8207C113.948 6.93174 113.942 7.02891 113.931 7.11219C113.92 7.18992 113.909 7.25654 113.898 7.31206C113.887 7.37869 113.876 7.44254 113.865 7.50361H108.41C108.432 7.77566 108.507 8.04216 108.635 8.30311C108.768 8.56405 108.932 8.79169 109.126 8.98601C109.326 9.18033 109.556 9.33857 109.817 9.46071C110.084 9.57731 110.353 9.6356 110.625 9.6356C110.864 9.6356 111.075 9.60229 111.258 9.53567C111.447 9.46349 111.619 9.38299 111.774 9.29415C111.93 9.20532 112.057 9.10816 112.157 9.00267C112.263 8.89163 112.349 8.78891 112.416 8.69453H113.781ZM110.542 4.18069C110.281 4.18069 110.031 4.23621 109.792 4.34726C109.559 4.4583 109.345 4.61098 109.151 4.8053C108.962 4.99962 108.801 5.23281 108.668 5.50486C108.54 5.77691 108.454 6.07395 108.41 6.39597H112.582C112.493 5.71306 112.257 5.17451 111.874 4.78032C111.497 4.38057 111.053 4.18069 110.542 4.18069Z" fill="black"/>
<path d="M102.438 2.98146C102.849 2.98146 103.232 3.06474 103.588 3.23131C103.949 3.39787 104.265 3.6255 104.537 3.91421C104.809 4.20292 105.026 4.5527 105.187 4.96355C105.348 5.36885 105.428 5.81857 105.428 6.31271V10.7433H104.146V6.31271C104.146 5.99624 104.093 5.70753 103.988 5.44658C103.888 5.18008 103.752 4.95245 103.579 4.76368C103.413 4.57491 103.216 4.43055 102.988 4.33062C102.76 4.23068 102.522 4.18071 102.272 4.18071C101.667 4.18071 101.173 4.37503 100.79 4.76368C100.412 5.14677 100.223 5.66311 100.223 6.31271V10.7433H98.9407V0H100.223V4.00582C100.384 3.8115 100.573 3.64216 100.79 3.49781C100.984 3.37011 101.214 3.25351 101.481 3.14803C101.753 3.03698 102.072 2.98146 102.438 2.98146Z" fill="black"/>
<path d="M97.4916 1.19092H94.2519V10.7433H92.8861V1.19092H89.6465V0H97.4916V1.19092Z" fill="black"/>
<path d="M190.02 43.3476C190.155 44.1228 190.526 44.7801 191.132 45.3194C191.739 45.8587 192.548 46.1283 193.559 46.1283C194.57 46.1283 195.362 45.8755 195.935 45.3699C196.542 44.8306 196.845 44.2408 196.845 43.6004C196.845 43.0611 196.542 42.6397 195.935 42.3364C195.362 42.033 194.638 41.7634 193.761 41.5275C192.885 41.2578 191.924 40.9882 190.879 40.7185C189.868 40.4489 188.925 40.0612 188.048 39.5557C187.172 39.0164 186.43 38.3422 185.824 37.5333C185.251 36.6907 184.964 35.5952 184.964 34.247C184.964 33.3032 185.149 32.41 185.52 31.5674C185.925 30.691 186.498 29.9326 187.239 29.2922C187.981 28.6518 188.857 28.1462 189.868 27.7755C190.879 27.371 192.025 27.1688 193.306 27.1688C196.104 27.1688 198.244 27.8429 199.727 29.1911C201.244 30.5393 202.137 32.2246 202.407 34.247H196.845C196.711 33.7414 196.34 33.2358 195.733 32.7302C195.16 32.2246 194.435 31.9718 193.559 31.9718C192.683 31.9718 191.992 32.1909 191.486 32.6291C191.014 33.0673 190.778 33.6066 190.778 34.247C190.778 34.7863 191.065 35.2076 191.638 35.511C192.245 35.8143 192.986 36.1008 193.862 36.3705C194.739 36.6064 195.683 36.876 196.694 37.1794C197.739 37.449 198.699 37.8535 199.576 38.3928C200.452 38.9321 201.177 39.6399 201.75 40.5163C202.356 41.3589 202.66 42.4712 202.66 43.8532C202.66 44.7969 202.457 45.707 202.053 46.5833C201.648 47.426 201.075 48.1675 200.334 48.8079C199.592 49.4483 198.682 49.9708 197.604 50.3752C196.559 50.746 195.379 50.9314 194.065 50.9314C191.031 50.9314 188.722 50.2404 187.138 48.8585C185.588 47.4765 184.694 45.6396 184.458 43.3476H190.02Z" fill="black"/>
<path d="M176.094 18.8265H181.656V28.6855H176.094V18.8265Z" fill="black"/>
<path d="M171.534 27.1688C171.804 27.1688 172.04 27.1856 172.242 27.2193C172.444 27.253 172.63 27.2867 172.798 27.3204C172.967 27.3541 173.135 27.3879 173.304 27.4216V33.4886C173.135 33.4549 172.95 33.4212 172.748 33.3875C172.579 33.3538 172.36 33.3201 172.091 33.2864C171.855 33.2527 171.585 33.2358 171.282 33.2358C169.866 33.2358 168.703 33.7077 167.793 34.6515C166.917 35.5615 166.479 36.7749 166.479 38.2917V50.6786H160.664V27.4216H164.962L165.973 29.9495C166.377 29.4439 166.866 28.9889 167.439 28.5844C167.911 28.2136 168.484 27.8934 169.158 27.6238C169.866 27.3204 170.658 27.1688 171.534 27.1688Z" fill="black"/>
<path d="M156.126 43.6004C155.823 44.4767 155.351 45.3531 154.71 46.2294C154.104 47.1058 153.345 47.8979 152.435 48.6057C151.559 49.2798 150.548 49.8359 149.402 50.2741C148.289 50.7123 147.076 50.9314 145.761 50.9314C144.177 50.9314 142.677 50.628 141.262 50.0213C139.88 49.3809 138.649 48.5214 137.571 47.4428C136.526 46.3642 135.683 45.1171 135.043 43.7015C134.436 42.2521 134.133 40.7017 134.133 39.0501C134.133 37.3985 134.436 35.8649 135.043 34.4492C135.683 32.9999 136.526 31.7359 137.571 30.6573C138.649 29.5787 139.88 28.7361 141.262 28.1294C142.677 27.489 144.177 27.1688 145.761 27.1688C147.278 27.1688 148.711 27.4553 150.059 28.0283C151.407 28.6013 152.587 29.4102 153.598 30.4551C154.609 31.5 155.401 32.7639 155.974 34.247C156.581 35.6963 156.884 37.2974 156.884 39.0501C156.884 39.3197 156.867 39.5894 156.834 39.859C156.8 40.095 156.766 40.3309 156.733 40.5668C156.699 40.8365 156.665 41.0893 156.631 41.3252H140.453C140.722 42.4712 141.295 43.4318 142.172 44.2071C143.048 44.9823 144.245 45.3699 145.761 45.3699C146.537 45.3699 147.177 45.2857 147.683 45.1171C148.222 44.9486 148.677 44.7464 149.048 44.5104C149.452 44.2408 149.789 43.9374 150.059 43.6004H156.126ZM145.761 32.7302C144.245 32.7302 142.997 33.1684 142.02 34.0448C141.076 34.9211 140.47 35.9997 140.2 37.2805H151.323C151.053 35.9997 150.43 34.9211 149.452 34.0448C148.508 33.1684 147.278 32.7302 145.761 32.7302Z" fill="black"/>
<path d="M130.361 50.6786H124.546V18.8265H130.361V50.6786Z" fill="black"/>
<path d="M119.51 50.6786H113.696V18.8265H119.51V50.6786Z" fill="black"/>
<path d="M109.158 43.6004C108.854 44.4767 108.382 45.3531 107.742 46.2294C107.135 47.1058 106.377 47.8979 105.467 48.6057C104.59 49.2798 103.579 49.8359 102.433 50.2741C101.321 50.7123 100.108 50.9314 98.7931 50.9314C97.2089 50.9314 95.709 50.628 94.2933 50.0213C92.9114 49.3809 91.6811 48.5214 90.6025 47.4428C89.5577 46.3642 88.715 45.1171 88.0746 43.7015C87.4679 42.2521 87.1646 40.7017 87.1646 39.0501C87.1646 37.3985 87.4679 35.8649 88.0746 34.4492C88.715 32.9999 89.5577 31.7359 90.6025 30.6573C91.6811 29.5787 92.9114 28.7361 94.2933 28.1294C95.709 27.489 97.2089 27.1688 98.7931 27.1688C100.31 27.1688 101.742 27.4553 103.091 28.0283C104.439 28.6013 105.619 29.4102 106.63 30.4551C107.641 31.5 108.433 32.7639 109.006 34.247C109.613 35.6963 109.916 37.2974 109.916 39.0501C109.916 39.3197 109.899 39.5894 109.865 39.859C109.832 40.095 109.798 40.3309 109.764 40.5668C109.731 40.8365 109.697 41.0893 109.663 41.3252H93.4844C93.754 42.4712 94.327 43.4318 95.2034 44.2071C96.0798 44.9823 97.2763 45.3699 98.7931 45.3699C99.5683 45.3699 100.209 45.2857 100.714 45.1171C101.254 44.9486 101.709 44.7464 102.079 44.5104C102.484 44.2408 102.821 43.9374 103.091 43.6004H109.158ZM98.7931 32.7302C97.2763 32.7302 96.0292 33.1684 95.0517 34.0448C94.108 34.9211 93.5013 35.9997 93.2316 37.2805H104.355C104.085 35.9997 103.461 34.9211 102.484 34.0448C101.54 33.1684 100.31 32.7302 98.7931 32.7302Z" fill="black"/>
<path d="M85.9143 27.4215L77.0665 50.6785H71.505L62.6572 27.4215H68.7243L74.2857 43.4992L79.8472 27.4215H85.9143Z" fill="black"/>
<path d="M51.7951 27.1688C53.1096 27.1688 54.323 27.4047 55.4353 27.8766C56.5476 28.3148 57.5082 28.9383 58.3172 29.7473C59.1261 30.5562 59.7497 31.5168 60.1878 32.6291C60.6597 33.7414 60.8957 34.9548 60.8957 36.2693V50.6786H56.5982L55.587 48.4034C55.0477 48.8753 54.4578 49.2966 53.8174 49.6674C53.2444 50.0045 52.5535 50.3078 51.7445 50.5775C50.9356 50.8134 50.0255 50.9314 49.0143 50.9314C46.4864 50.9314 44.5483 50.3247 43.2001 49.1113C41.8519 47.8642 41.1777 46.28 41.1777 44.3587C41.1777 43.2127 41.3968 42.1679 41.835 41.2241C42.3069 40.2466 43.0821 39.4208 44.1607 38.7467C45.2393 38.0389 46.6549 37.4996 48.4076 37.1288C50.194 36.7244 52.4186 36.5221 55.0814 36.5221C55.0814 35.2413 54.7275 34.247 54.0197 33.5392C53.3455 32.8313 52.4355 32.4774 51.2895 32.4774C50.5143 32.4774 49.8907 32.6123 49.4188 32.8819C48.9806 33.1516 48.6267 33.438 48.3571 33.7414C48.0537 34.1122 47.8515 34.5335 47.7504 35.0054H41.9361C42.0709 33.9268 42.3743 32.9156 42.8462 31.9718C43.3518 31.0281 44.0259 30.2023 44.8685 29.4945C45.7112 28.7866 46.7055 28.2305 47.8515 27.826C49.0312 27.3879 50.3457 27.1688 51.7951 27.1688ZM50.0255 46.3811C51.5423 46.3811 52.7557 45.9429 53.6657 45.0666C54.6095 44.1565 55.0814 42.9937 55.0814 41.578V40.5668C53.3624 40.5668 51.9805 40.6511 50.9356 40.8196C49.8907 40.9545 49.0649 41.1735 48.4582 41.4769C47.8852 41.7465 47.4976 42.0836 47.2953 42.4881C47.0931 42.8925 46.992 43.3476 46.992 43.8532C46.992 44.4936 47.2785 45.0834 47.8515 45.6227C48.4245 46.1283 49.1492 46.3811 50.0255 46.3811Z" fill="black"/>
<path d="M37.37 27.1688C37.6397 27.1688 37.8756 27.1856 38.0778 27.2193C38.2801 27.253 38.4655 27.2867 38.634 27.3204C38.8025 27.3541 38.971 27.3879 39.1396 27.4216V33.4886C38.971 33.4549 38.7857 33.4212 38.5834 33.3875C38.4149 33.3538 38.1958 33.3201 37.9262 33.2864C37.6902 33.2527 37.4206 33.2358 37.1172 33.2358C35.7016 33.2358 34.5387 33.7077 33.6287 34.6515C32.7523 35.5615 32.3141 36.7749 32.3141 38.2917V50.6786H26.4999V27.4216H30.7974L31.8085 29.9495C32.213 29.4439 32.7018 28.9889 33.2748 28.5844C33.7466 28.2136 34.3196 27.8934 34.9937 27.6238C35.7016 27.3204 36.4937 27.1688 37.37 27.1688Z" fill="black"/>
<path d="M0 18.8265H24.7738V24.6408H15.4204V50.6786H9.35337V24.6408H0V18.8265Z" fill="black"/>
</svg>
